<svg width="512" height="512" viewBox="0 0 512 512" fill="none" xmlns="http://www.w3.org/2000/svg">
  <rect width="512" height="512" rx="128" fill="#FAFAF8"></rect>
  <circle cx="256" cy="256" r="210" fill="#2179B6"></circle>
  <circle cx="256" cy="256" r="170" fill="#0B78AD"></circle>
  <path d="M174 310C145 310 122 287 122 256C122 225 145 202 174 202C195 202 212 212 222 228L190 246C187 240 181 236 174 236C165 236 158 244 158 256C158 268 165 276 174 276C181 276 187 272 190 266L222 284C212 300 195 310 174 310Z" fill="#FAFAF8"></path>
  <path d="M246 202H285L320 265L355 202H394V310H358V260L332 310H308L282 260V310H246V202Z" fill="#FAFAF8"></path>
  <path d="M104 352C152 332 200 332 248 352C296 372 344 372 408 340" stroke="#F0A472" stroke-width="24" stroke-linecap="round"></path>
  <path d="M116 380C164 360 212 360 260 380C308 400 356 400 420 368" stroke="#F0AEA3" stroke-width="18" stroke-linecap="round"></path>
</svg>